# xmcd
#
# Track frame offsets: 
#        150
#        21130
#        44738
#        66413
#        86470
#        105700
#        127315
#        145705
#        166992
#        188145
#        209273
#        245843
#
# Disc length: 4274 seconds
#
# Revision: 0
# Processed by: cddbd v1.5.2PL0 Copyright (c) Steve Scherf et al.
# Submitted via: ExactAudioCopyFreeDBPlugin 1.0
#
DISCID=b410b00c
DTITLE=Various Artist - 10 Years Of Bling Vol. 1
DYEAR=2007
DGENRE=Rap
TTITLE0=Big Tymers - Big Ballin'
TTITLE1=BG - Bling, Bling
TTITLE2=Lil Wayne - Get Off The Corner
TTITLE3=Big Tymers - 10 Wayz
TTITLE4=Lil Wayne - Tha Block Is Hot
TTITLE5=Lil Wayne - F**k Tha World
TTITLE6=Big Tymers - Get Your Roll On
TTITLE7=Lil Wayne - Everything
TTITLE8=Cash Money Millionaires - Project B***h
TTITLE9=Big Tymers (feat. Tateeze, Boo and Gotti) - Oh Yeah
TTITLE10=Big Tymers - Still Fly
TTITLE11=Do It! - Archive it!
EXTD=
EXTT0=
EXTT1=
EXTT2=
EXTT3=
EXTT4=
EXTT5=
EXTT6=
EXTT7=
EXTT8=
EXTT9=
EXTT10=
EXTT11=
PLAYORDER=
